<svg width="24" height="18" viewBox="0 0 24 18" fill="none" xmlns="http://www.w3.org/2000/svg">
  <path d="M22.7044 7.71533L15.8547 0.363281C15.4367 -0.0852863 14.759 -0.0852863 14.341 0.363281C13.923 0.81194 13.923 1.53924 14.341 1.9879L19.3637 7.37889H1.07027C0.479225 7.37889 0 7.89325 0 8.52764C0 9.16194 0.479225 9.6764 1.07027 9.6764H19.3637L14.3412 15.0674C13.9232 15.516 13.9232 16.2433 14.3412 16.692C14.5501 16.9162 14.8241 17.0285 15.098 17.0285C15.3719 17.0285 15.6458 16.9162 15.8548 16.692L22.7044 9.33995C23.1224 8.89129 23.1224 8.16399 22.7044 7.71533Z" fill="#112435"/>
</svg>
